<svg xmlns="http://www.w3.org/2000/svg" width="1800" height="1000" viewBox="0 0 1800 1000"><rect width="1800" height="1000" fill="#F5F8FC"/><text x="48" y="74" font-family="Malgun Gothic,sans-serif" font-size="42" font-weight="700" fill="#19324F">Hi스포링 · 향후 데이터 구조 확장</text><text x="48" y="120" font-family="Malgun Gothic,sans-serif" font-size="24" font-weight="400" fill="#617792">서울 CSV 기반 운영에서 전국 DB 기반 조회로 확장합니다. 아래의 향후 구성은 개발 계획입니다.</text><text x="48" y="195" font-family="Malgun Gothic,sans-serif" font-size="29" font-weight="700" fill="#148BDD">현재  ·  서울 중심 / CSV + 메모리 캐시</text><rect x="48" y="220" width="384" height="195" rx="16" fill="white" stroke="#148BDD" stroke-width="2"/><rect x="48" y="220" width="384" height="60" rx="16" fill="#148BDD" stroke="#148BDD" stroke-width="2"/><text x="68" y="262" font-family="Malgun Gothic,sans-serif" font-size="27" font-weight="700" fill="white">원본 CSV</text><text x="68" y="328" font-family="Malgun Gothic,sans-serif" font-size="23" font-weight="400" fill="#19324F">운영자가 확보 · 반영</text><text x="68" y="367" font-family="Malgun Gothic,sans-serif" font-size="23" font-weight="400" fill="#19324F">외부 자동 수집 없음</text><rect x="488" y="220" width="384" height="195" rx="16" fill="white" stroke="#148BDD" stroke-width="2"/><rect x="488" y="220" width="384" height="60" rx="16" fill="#148BDD" stroke="#148BDD" stroke-width="2"/><text x="508" y="262" font-family="Malgun Gothic,sans-serif" font-size="27" font-weight="700" fill="white">서울 정제 · 검증</text><text x="508" y="328" font-family="Malgun Gothic,sans-serif" font-size="23" font-weight="400" fill="#19324F">지역 추출 · 품질 검증</text><text x="508" y="367" font-family="Malgun Gothic,sans-serif" font-size="23" font-weight="400" fill="#19324F">서비스 CSV 발행</text><rect x="928" y="220" width="384" height="195" rx="16" fill="white" stroke="#148BDD" stroke-width="2"/><rect x="928" y="220" width="384" height="60" rx="16" fill="#148BDD" stroke="#148BDD" stroke-width="2"/><text x="948" y="262" font-family="Malgun Gothic,sans-serif" font-size="27" font-weight="700" fill="white">메모리 캐시</text><text x="948" y="328" font-family="Malgun Gothic,sans-serif" font-size="23" font-weight="400" fill="#19324F">서울 데이터 사전 적재</text><text x="948" y="367" font-family="Malgun Gothic,sans-serif" font-size="23" font-weight="400" fill="#19324F">세대 변경 시 재적재</text><rect x="1368" y="220" width="384" height="195" rx="16" fill="white" stroke="#148BDD" stroke-width="2"/><rect x="1368" y="220" width="384" height="60" rx="16" fill="#148BDD" stroke="#148BDD" stroke-width="2"/><text x="1388" y="262" font-family="Malgun Gothic,sans-serif" font-size="27" font-weight="700" fill="white">Django · AI</text><text x="1388" y="328" font-family="Malgun Gothic,sans-serif" font-size="23" font-weight="400" fill="#19324F">조회 · 집계 · 기획</text><text x="1388" y="367" font-family="Malgun Gothic,sans-serif" font-size="23" font-weight="400" fill="#19324F">근거 기반 AI 분석</text><polyline points="432,318 480,318" fill="none" stroke="#148BDD" stroke-width="3"/><polygon points="480,318 466,310 466,326" fill="#148BDD"/><polyline points="872,318 920,318" fill="none" stroke="#148BDD" stroke-width="3"/><polygon points="920,318 906,310 906,326" fill="#148BDD"/><polyline points="1312,318 1360,318" fill="none" stroke="#148BDD" stroke-width="3"/><polygon points="1360,318 1346,310 1346,326" fill="#148BDD"/><text x="48" y="506" font-family="Malgun Gothic,sans-serif" font-size="29" font-weight="700" fill="#0FA580">향후  ·  전국 확대 / 자동 수집 + DB</text><rect x="48" y="532" width="384" height="195" rx="16" fill="white" stroke="#0FA580" stroke-width="2"/><rect x="48" y="532" width="384" height="60" rx="16" fill="#0FA580" stroke="#0FA580" stroke-width="2"/><text x="68" y="574" font-family="Malgun Gothic,sans-serif" font-size="27" font-weight="700" fill="white">API / 원본 파일</text><text x="68" y="640" font-family="Malgun Gothic,sans-serif" font-size="23" font-weight="400" fill="#19324F">API 제공 시 수집기 추가</text><text x="68" y="679" font-family="Malgun Gothic,sans-serif" font-size="23" font-weight="400" fill="#19324F">기관 갱신 주기와 연계</text><rect x="488" y="532" width="384" height="195" rx="16" fill="white" stroke="#0FA580" stroke-width="2"/><rect x="488" y="532" width="384" height="60" rx="16" fill="#0FA580" stroke="#0FA580" stroke-width="2"/><text x="508" y="574" font-family="Malgun Gothic,sans-serif" font-size="27" font-weight="700" fill="white">전국 정제 · 검증</text><text x="508" y="640" font-family="Malgun Gothic,sans-serif" font-size="23" font-weight="400" fill="#19324F">지역별 데이터 표준화</text><text x="508" y="679" font-family="Malgun Gothic,sans-serif" font-size="23" font-weight="400" fill="#19324F">기존 정제 규칙 확장</text><rect x="928" y="532" width="384" height="195" rx="16" fill="white" stroke="#0FA580" stroke-width="2"/><rect x="928" y="532" width="384" height="60" rx="16" fill="#0FA580" stroke="#0FA580" stroke-width="2"/><text x="948" y="574" font-family="Malgun Gothic,sans-serif" font-size="27" font-weight="700" fill="white">DB · 색인 · 조회</text><text x="948" y="640" font-family="Malgun Gothic,sans-serif" font-size="23" font-weight="400" fill="#19324F">DB 스키마 · 저장기 구현</text><text x="948" y="679" font-family="Malgun Gothic,sans-serif" font-size="23" font-weight="400" fill="#19324F">지역·종목 조회 계층 전환</text><rect x="1368" y="532" width="384" height="195" rx="16" fill="white" stroke="#0FA580" stroke-width="2"/><rect x="1368" y="532" width="384" height="60" rx="16" fill="#0FA580" stroke="#0FA580" stroke-width="2"/><text x="1388" y="574" font-family="Malgun Gothic,sans-serif" font-size="27" font-weight="700" fill="white">Django · AI</text><text x="1388" y="640" font-family="Malgun Gothic,sans-serif" font-size="23" font-weight="400" fill="#19324F">전국 프로그램 기획</text><text x="1388" y="679" font-family="Malgun Gothic,sans-serif" font-size="23" font-weight="400" fill="#19324F">DB 집계 기반 분석</text><polyline points="432,630 480,630" fill="none" stroke="#0FA580" stroke-width="3"/><polygon points="480,630 466,622 466,638" fill="#0FA580"/><polyline points="872,630 920,630" fill="none" stroke="#0FA580" stroke-width="3"/><polygon points="920,630 906,622 906,638" fill="#0FA580"/><polyline points="1312,630 1360,630" fill="none" stroke="#0FA580" stroke-width="3"/><polygon points="1360,630 1346,622 1346,638" fill="#0FA580"/><rect x="48" y="790" width="1704" height="146" rx="16" fill="#19324F" stroke="#19324F" stroke-width="2"/><text x="72" y="839" font-family="Malgun Gothic,sans-serif" font-size="26" font-weight="700" fill="white">현재 확보한 확장 지점</text><text x="490" y="837" font-family="Malgun Gothic,sans-serif" font-size="24" font-weight="400" fill="white">정제·반영 단계 분리 / data_refresh.py의 CSV·DB 저장기 선택 지점</text><text x="72" y="895" font-family="Malgun Gothic,sans-serif" font-size="26" font-weight="700" fill="white">추가 구현 필요</text><text x="490" y="893" font-family="Malgun Gothic,sans-serif" font-size="24" font-weight="400" fill="white">API 수집기 · DB 모델 및 저장기 · DB 조회 계층 · 독립 배치 운영</text></svg>